<svg t="1600077073058" class="icon" viewBox="0 0 1024 1024" version="1.1" xmlns="http://www.w3.org/2000/svg" p-id="1533" width="200" height="200"><path d="M896.963 105.822a48.545 48.545 0 0 0-25.874-26.748c-9.903-4.272-97.528-37.914-227.92 44.565H380.831C250.244 41.015 162.717 74.802 152.91 79.074a48.788 48.788 0 0 0-25.874 26.7c-29.807 75.342-20.535 155.247-8.933 201.268-35.875 47.963-43.01 92.43-43.01 156.413 0 202.385 144.615 259.28 257.968 280.203a215.686 215.686 0 0 0-14.806 52.962 50.487 50.487 0 0 0-0.437 6.651v43.934c-22.185-4.71-46.652-13.593-62.769-29.71-54.71-54.71-111.314-111.314-179.957-111.314v97.09c28.448 0 74.372 45.924 111.314 82.867 58.06 58.06 146.85 62.866 174.52 62.866 3.544 0 6.117-0.097 7.428-0.146a48.545 48.545 0 0 0 46.555-48.497v-93.4c4.854-28.157 23.01-56.459 31.797-64.129a48.545 48.545 0 0 0-26.312-84.857c-157.19-17.913-248.211-55.535-248.211-194.52 0-60.439 6.408-80.488 35.923-112.965 12.525-13.787 16.02-33.642 9.078-50.972-5.486-13.544-21.36-74.469-7.379-133.742 23.496-1.796 68.158 5.194 129.373 46.603 7.962 5.437 17.476 8.35 27.185 8.35h291.272a48.545 48.545 0 0 0 27.233-8.35c61.459-41.555 105.78-47.526 129.325-46.797 14.03 59.419-1.796 120.343-7.282 133.887a48.545 48.545 0 0 0 9.126 51.118c29.419 32.234 35.778 52.283 35.778 112.868 0 139.47-90.973 176.947-248.114 194.472a48.545 48.545 0 0 0-26.312 85.002c22.525 19.419 31.7 36.943 31.7 60.342v145.636h97.09V803.27c0-23.253-4.465-43.35-11.116-60.439 110.392-21.748 253.843-80.973 253.843-279.377 0-64.128-7.136-108.693-42.963-156.461 11.602-45.973 20.778-125.732-8.98-201.172z" p-id="1534"></path></svg>