<?xml version="1.0" encoding="utf-8"?>
<!-- Generator: Adobe Illustrator 21.0.0, SVG Export Plug-In . SVG Version: 6.00 Build 0)  -->
<svg version="1.1" id="图层_1" xmlns="http://www.w3.org/2000/svg" xmlns:xlink="http://www.w3.org/1999/xlink" x="0px" y="0px"
	 viewBox="0 0 1000 1000" style="enable-background:new 0 0 1000 1000;" xml:space="preserve">
<style type="text/css">
	.st0{fill:#F5B619;}
	.st1{fill:#F4ED4F;}
	.st2{fill:#A7CF5B;}
	.st3{fill:#8AD0E3;}
	.st4{fill:#77C6B0;}
	.st5{fill:#B37CB4;}
	.st6{fill:#FFFFFF;}
	.st7{fill:#EB5C29;}
	.st8{fill:#74AEBE;}
	.st9{fill:#D3D1D2;}
	.st10{fill:#64A694;}
	.st11{fill:#946796;}
	.st12{fill:#EF8CA4;}
	.st13{fill:#565656;}
	.st14{fill:#EFEFEF;}
	.st15{fill:#FF6464;}
	.st16{fill:#82CFF0;}
	.st17{fill:#F7D426;}
	.st18{fill:#DB8D0F;}
	.st19{fill:#EB6043;}
	.st20{fill:none;stroke:#565656;stroke-width:15;stroke-linecap:round;stroke-miterlimit:10;}
	.st21{fill:none;stroke:#FFFFFF;stroke-width:15;stroke-linecap:round;stroke-miterlimit:10;}
	.st22{fill:#8CD3B6;stroke:#565656;stroke-width:15;stroke-linecap:round;stroke-miterlimit:10;}
	.st23{fill:#CAC8E4;}
	.st24{fill:#ACABC2;}
	.st25{fill:#8CD3B6;}
	.st26{fill:#FFDDE1;}
	.st27{fill:#EE9CA7;}
	.st28{fill:#8EC557;}
	.st29{fill:#A5DBF5;}
	.st30{fill:#F64F59;}
	.st31{fill:#C8434B;}
	.st32{fill:#CEEAF6;}
	.st33{fill:#F7F6C3;}
	.st34{fill:#EE859E;}
	.st35{clip-path:url(#SVGID_2_);fill:#2193B0;}
	.st36{clip-path:url(#SVGID_2_);fill:#6DD5ED;}
	.st37{clip-path:url(#SVGID_2_);}
	.st38{clip-path:url(#SVGID_4_);fill:url(#SVGID_5_);}
	.st39{clip-path:url(#SVGID_2_);fill:#EE9CA7;}
	.st40{clip-path:url(#SVGID_2_);fill:#FFDDE1;}
	.st41{clip-path:url(#SVGID_7_);fill:url(#SVGID_8_);}
	.st42{clip-path:url(#SVGID_2_);fill:#BDC3C7;}
	.st43{clip-path:url(#SVGID_2_);fill:#2C3E50;}
	.st44{clip-path:url(#SVGID_10_);fill:url(#SVGID_11_);}
	.st45{clip-path:url(#SVGID_2_);fill:#373B44;}
	.st46{clip-path:url(#SVGID_2_);fill:#4286F4;}
	.st47{clip-path:url(#SVGID_13_);fill:url(#SVGID_14_);}
	.st48{clip-path:url(#SVGID_2_);fill:#FF0099;}
	.st49{clip-path:url(#SVGID_2_);fill:#493240;}
	.st50{clip-path:url(#SVGID_16_);fill:url(#SVGID_17_);}
	.st51{clip-path:url(#SVGID_2_);fill:#8E2DE2;}
	.st52{clip-path:url(#SVGID_2_);fill:#4A00E0;}
	.st53{clip-path:url(#SVGID_19_);fill:url(#SVGID_20_);}
	.st54{clip-path:url(#SVGID_2_);fill:#1F4037;}
	.st55{clip-path:url(#SVGID_2_);fill:#99F2C8;}
	.st56{clip-path:url(#SVGID_22_);fill:url(#SVGID_23_);}
	.st57{clip-path:url(#SVGID_2_);fill:#F953C6;}
	.st58{clip-path:url(#SVGID_2_);fill:#B91D73;}
	.st59{clip-path:url(#SVGID_25_);fill:url(#SVGID_26_);}
	.st60{clip-path:url(#SVGID_2_);fill:#F12711;}
	.st61{clip-path:url(#SVGID_2_);fill:#F5AF19;}
	.st62{clip-path:url(#SVGID_28_);fill:url(#SVGID_29_);}
	.st63{clip-path:url(#SVGID_2_);fill:#8360C3;}
	.st64{clip-path:url(#SVGID_2_);fill:#2EBF91;}
	.st65{clip-path:url(#SVGID_31_);fill:url(#SVGID_32_);}
	.st66{clip-path:url(#SVGID_2_);fill:#009FFF;}
	.st67{clip-path:url(#SVGID_34_);fill:url(#SVGID_35_);}
	.st68{clip-path:url(#SVGID_2_);fill:#EC2F4B;}
	.st69{clip-path:url(#SVGID_37_);fill:url(#SVGID_38_);}
	.st70{clip-path:url(#SVGID_2_);fill:#654EA3;}
	.st71{clip-path:url(#SVGID_2_);fill:#EAAFC8;}
	.st72{clip-path:url(#SVGID_40_);fill:url(#SVGID_41_);}
	.st73{clip-path:url(#SVGID_2_);fill:#FF416C;}
	.st74{clip-path:url(#SVGID_2_);fill:#FF4B2B;}
	.st75{clip-path:url(#SVGID_43_);fill:url(#SVGID_44_);}
	.st76{clip-path:url(#SVGID_2_);fill:#C6FFDD;}
	.st77{clip-path:url(#SVGID_2_);fill:#FBD786;}
	.st78{clip-path:url(#SVGID_2_);fill:#F7797D;}
	.st79{clip-path:url(#SVGID_46_);fill:url(#SVGID_47_);}
	.st80{clip-path:url(#SVGID_2_);fill:#0F2027;}
	.st81{clip-path:url(#SVGID_2_);fill:#203A43;}
	.st82{clip-path:url(#SVGID_2_);fill:#2C5364;}
	.st83{clip-path:url(#SVGID_49_);fill:url(#SVGID_50_);}
	.st84{clip-path:url(#SVGID_2_);fill:#12C2E9;}
	.st85{clip-path:url(#SVGID_2_);fill:#C471ED;}
	.st86{clip-path:url(#SVGID_2_);fill:#F64F59;}
	.st87{clip-path:url(#SVGID_52_);fill:url(#SVGID_53_);}
	.st88{clip-path:url(#SVGID_2_);fill:#2980B9;}
	.st89{clip-path:url(#SVGID_2_);fill:#6DD5FA;}
	.st90{clip-path:url(#SVGID_2_);fill:#FFFFFF;}
	.st91{clip-path:url(#SVGID_55_);fill:url(#SVGID_56_);}
	.st92{clip-path:url(#SVGID_2_);fill:#AA4B6B;}
	.st93{clip-path:url(#SVGID_2_);fill:#6B6B83;}
	.st94{clip-path:url(#SVGID_2_);fill:#3B8D99;}
	.st95{clip-path:url(#SVGID_58_);fill:url(#SVGID_59_);}
	.st96{clip-path:url(#SVGID_2_);fill:#7F7FD5;}
	.st97{clip-path:url(#SVGID_2_);fill:#86A8E7;}
	.st98{clip-path:url(#SVGID_2_);fill:#91EAE4;}
	.st99{clip-path:url(#SVGID_61_);fill:url(#SVGID_62_);}
	.st100{fill:#ED6E2D;}
	.st101{fill:#F5CE29;}
	.st102{fill:#F12711;}
	.st103{fill:#89CBB0;}
</style>
<g>
	<path class="st23" d="M831.2,833.7c-15,31.7-42.2,67.8-75.8,77.6C657.5,940,652,910.9,512,910.9c-79.2,0-130.4,6.7-161.5,13.2
		C289.1,937,227.8,900.5,211.2,840c-20.8-75.8,4-171.7,13.7-204.2c2.2-7.3,1.2-15.3-2.8-21.8c-35.8-59.3-52.3-82.4-59.2-112.3
		c-10.6-46.5,34.8-86.2,79.4-69.4c0.2,0.1,0.3,0.1,0.5,0.2c0.4,0.2,0.8,0.3,1.2,0.4c13.6,4.5,28.2-22.9,32.8-36.5l29.8-89.6
		c6.8-24.8,13.6-50.2,25.1-73.3c15.3-30.8,44.5-43.7,71.6-62.7c28.3-19.8,55.6-41.1,81.7-63.8c10.7-9.3,20.2-15.1,28.8-18.2
		c49.3-17.7,69.8,53.4,122.9,69c65.8,19.4,111.3,92.3,142.6,179.1c8.5,23.7,34,36.5,58.2,29.3c0.2-0.1,0.4-0.1,0.6-0.2
		c26.2-7.6,50.3,5.1,63.8,27.8c12.9,21.6,7.5,48.5,1.1,71.3c-13.4,47.3-51.7,99.9-64,115.9c-2.4,3.2-3.5,7.2-3,11.2
		c5.3,42.3,11,84.6,12.4,127.3C849.6,758.2,848,798.2,831.2,833.7z"/>
</g>
<g>
	<g>
		<path class="st24" d="M874.9,465.3c6.4-22.8,11.8-49.7-1.1-71.3c-13.5-22.7-37.7-35.5-63.8-27.8c-1.8,0.5-3.5,1.1-5.3,1.7
			c11.8,4.9,22,14.1,29.1,26.2c12.9,21.6,7.5,48.5,1.1,71.3c-13.4,47.3-51.7,99.9-64,115.9c-2.5,3.2-3.5,7.2-3,11.2
			c5.3,42.3,11,84.6,12.4,127.3c1.3,38.5-0.2,78.5-17,113.9c-15,31.7-42.2,67.8-75.8,77.6c-22.4,6.6-40,10.1-55.4,11.7
			c26.8,2.4,52.1,1.1,95.4-11.7c33.6-9.9,60.8-45.9,75.8-77.6c16.8-35.4,18.3-75.4,17-113.9c-1.5-42.6-7.1-85-12.4-127.3
			c-0.5-4,0.6-8,3-11.2C823.1,565.2,861.5,512.6,874.9,465.3z"/>
	</g>
</g>
<g>
	<circle class="st25" cx="382.3" cy="492.9" r="16.7"/>
</g>
<g>
	<circle class="st25" cx="653.5" cy="492.9" r="16.7"/>
</g>
<g>
	<path class="st13" d="M297.8,934.1c-55.8,0-106.6-36.9-121.8-92.2c-21.1-76.7,2.6-171.3,13.8-208.3c1.6-5.4,0.9-11-2-15.9
		c-23.9-39.7-41.4-75.4-52-106.3c-3.2-9.2-5.9-18.3-8.1-27.8c-5.7-24.6,2.3-49.1,21.3-65.7c19-16.6,44.4-21.2,68-12.3l0.4,0.1
		c0.3,0.1,0.5,0.2,0.7,0.3l0.3,0.1c4.2,1.4,8.7,1.1,12.8-0.7c5-2.1,8.8-6.3,10.5-11.5c1.3-3.9,5.6-6,9.5-4.7c3.9,1.3,6,5.6,4.7,9.5
		c-3.1,9.2-10,16.6-18.8,20.5c-7.5,3.2-15.5,3.6-23.2,1.2c-0.5-0.1-0.9-0.3-1.1-0.4l-0.6-0.1l-0.4-0.2c-0.1,0-0.2-0.1-0.3-0.1
		c-18.3-6.8-37.9-3.2-52.6,9.7c-14.7,12.9-20.9,32-16.5,51c2.1,9,4.6,17.6,7.7,26.3c10.3,29.9,27.3,64.7,50.6,103.4
		c5.1,8.3,6.4,18.5,3.6,27.9c-8.4,28-34.2,125.1-13.7,200.1c15.4,56.3,72.8,90.9,130.5,78.7c29.2-6.1,81.1-13.4,163-13.4
		c56.9,0,91.6,4.7,119.5,8.5c40.4,5.5,64.8,8.8,121.8-7.8c31.1-9.1,57.1-44,71.1-73.6c1.8-3.7,6.2-5.3,10-3.6
		c3.7,1.8,5.3,6.2,3.6,10c-7.5,15.8-35.4,68.4-80.5,81.6c-60,17.6-87.1,13.9-128,8.3c-27.5-3.7-61.6-8.4-117.5-8.4
		c-80.6,0-131.5,7.1-160,13C315.3,933.2,306.4,934.1,297.8,934.1z"/>
</g>
<g>
	<path class="st13" d="M820.2,727.2c-4,0-7.3-3.2-7.5-7.2c-1.4-40.4-6.7-81.4-11.7-121.1l-0.7-5.5c-0.7-5.9,0.8-11.8,4.4-16.6
		c8.2-10.7,36.1-48.3,53.2-87.2c4-9.1,7.3-18,9.7-26.3c6.4-22.9,10.8-46.7-0.3-65.4c-12.7-21.4-33.9-30.8-55.2-24.5
		c-10,2.9-20.6,7.5-30.4,13.3c-4.6,2.7-10.1,3.1-15,1.2c-5-1.9-8.8-6-10.4-11.1c-0.4-1.2-0.7-2.3-1.1-3.4c-0.4-1.1-0.7-2.3-1.1-3.4
		c-17-54.2-37.1-98.7-59.7-132.2c-26-38.6-55.7-63-88.2-72.6c-24.6-7.2-42.5-25.3-58.3-41.2c-22.5-22.6-37.4-36.1-60-28
		c-8,2.9-16.9,8.5-26.4,16.8c-26.1,22.6-53.8,44.2-82.3,64.3c-6,4.2-12.1,8.1-18,11.9c-20.6,13.2-40.1,25.7-51.1,48
		c-1.8,3.7-6.3,5.2-10,3.4c-3.7-1.8-5.2-6.3-3.4-10c12.8-26,35-40.2,56.4-53.9c5.8-3.7,11.8-7.5,17.5-11.6
		c28.1-19.8,55.4-41.1,81.1-63.3c11-9.6,21.2-16,31.2-19.6c32.7-11.7,54.6,10.3,75.7,31.5c15.2,15.3,31,31.2,51.9,37.3
		c66.2,19.6,119.4,91.8,157.9,214.8c0.4,1.2,0.7,2.3,1.1,3.4c0.4,1.1,0.7,2.3,1.1,3.4c0.3,1,1,1.4,1.5,1.6c0.5,0.2,1.2,0.3,2-0.2
		c10.9-6.4,22.6-11.5,33.8-14.7c27.8-8.2,56.2,4,72.3,31.2c14.1,23.6,8.9,52.3,1.9,77.2c-2.6,9-6.1,18.5-10.4,28.2
		c-17.8,40.5-46.6,79.3-55,90.3c-1.2,1.6-1.8,3.7-1.5,5.7l0.7,5.5c5.1,40,10.4,81.4,11.8,122.4c0.1,4.1-3.1,7.6-7.2,7.8
		C820.4,727.2,820.3,727.2,820.2,727.2z"/>
</g>
<g>
	<ellipse transform="matrix(0.8634 -0.5046 0.5046 0.8634 -23.7698 355.7318)" class="st6" cx="645" cy="221.8" rx="7.8" ry="7.8"/>
</g>
<g>
	<path class="st6" d="M628.4,212c-2,0-4.1-0.8-5.6-2.5c-28.1-31.1-72.7-31.8-73.2-31.8c-4.1,0-7.5-3.4-7.4-7.6
		c0-4.1,3.4-7.4,7.5-7.4c0,0,0,0,0.1,0c2.1,0,51.8,0.8,84.2,36.8c2.8,3.1,2.5,7.8-0.5,10.6C632,211.3,630.2,212,628.4,212z"/>
</g>
<g>
	<path class="st13" d="M260.6,376.6c-1.8,0-3.6-0.7-5.1-2c-3-2.8-3.2-7.4-0.5-10.5c4.7-6.5,20.1-60.4,32.3-108.9
		c1-4,5.1-6.5,9.1-5.4c4,1,6.5,5.1,5.4,9.1c-0.1,0.3-6.6,26.2-14,52.9c-15.5,55.6-19.7,60.1-21.7,62.3
		C264.7,375.7,262.6,376.6,260.6,376.6z M255.1,364C255.1,364,255.1,364,255.1,364C255.1,364,255.1,364,255.1,364z"/>
</g>
<g>
	<path class="st13" d="M811,821.3c-0.9,0-1.9-0.2-2.8-0.5c-3.8-1.5-5.7-5.9-4.2-9.8c8.9-22,9.1-72.1,9.1-72.6c0-4.1,3.4-7.5,7.5-7.5
		c0,0,0,0,0,0c4.1,0,7.5,3.4,7.5,7.5c0,2.2-0.2,53.5-10.1,78.2C816.8,819.5,814,821.3,811,821.3z"/>
</g>
<g>
	<path class="st6" d="M259.9,849.5c-1.8,0-3.7-0.7-5.1-2.1c-4.5-4.3-10.5-15-17.5-60.9c-3.8-24.5-6-47.9-6.1-48.1
		c-0.4-4.1,2.6-7.8,6.7-8.2c4.1-0.4,7.8,2.6,8.2,6.7c0,0.2,2.2,23.2,5.9,47.2c6.9,45.3,12.5,51.8,13.1,52.4
		c2.9,2.9,3.1,7.6,0.2,10.6C263.8,848.8,261.8,849.5,259.9,849.5z"/>
</g>
<g>
	
		<ellipse transform="matrix(0.9797 -0.2003 0.2003 0.9797 -138.9193 62.2276)" class="st6" cx="238.1" cy="717.6" rx="7.8" ry="7.8"/>
</g>
<g>
	<circle class="st13" cx="453.8" cy="408.7" r="19"/>
</g>
<g>
	<circle class="st13" cx="581.6" cy="408.7" r="19"/>
</g>
<g>
	<path class="st13" d="M440.8,468.7c-33.1,0-60.1-27-60.1-60.1s27-60.1,60.1-60.1s60.1,27,60.1,60.1S473.9,468.7,440.8,468.7z
		 M440.8,363.6c-24.9,0-45.1,20.2-45.1,45.1s20.2,45.1,45.1,45.1s45.1-20.2,45.1-45.1S465.6,363.6,440.8,363.6z"/>
</g>
<g>
	<path class="st13" d="M600.6,468.7c-33.1,0-60.1-27-60.1-60.1s27-60.1,60.1-60.1s60.1,27,60.1,60.1S633.7,468.7,600.6,468.7z
		 M600.6,363.6c-24.9,0-45.1,20.2-45.1,45.1s20.2,45.1,45.1,45.1s45.1-20.2,45.1-45.1S625.5,363.6,600.6,363.6z"/>
</g>
<g>
	<path class="st13" d="M548.1,419h-54.8c-4.1,0-7.5-3.4-7.5-7.5s3.4-7.5,7.5-7.5h54.8c4.1,0,7.5,3.4,7.5,7.5S552.2,419,548.1,419z"
		/>
</g>
<g>
	<path class="st13" d="M541,483.7h-37c-4.1,0-7.5-3.4-7.5-7.5s3.4-7.5,7.5-7.5h37c4.1,0,7.5,3.4,7.5,7.5S545.1,483.7,541,483.7z"/>
</g>
<g>
	<line class="st13" x1="825" y1="421.4" x2="875" y2="272.8"/>
	<path class="st13" d="M825,428.9c-0.8,0-1.6-0.1-2.4-0.4c-3.9-1.3-6-5.6-4.7-9.5l50-148.6c1.3-3.9,5.6-6,9.5-4.7
		c3.9,1.3,6,5.6,4.7,9.5l-50,148.6C831.1,426.9,828.1,428.9,825,428.9z"/>
</g>
<g>
	<path class="st103" d="M209.6,517.2h-96c-6.6,0-12-5.4-12-12V382.3c0-6.6,5.4-12,12-12h96c6.6,0,12,5.4,12,12v122.9
		C221.6,511.8,216.2,517.2,209.6,517.2z"/>
	<path class="st13" d="M209.6,524.7h-96c-10.8,0-19.5-8.7-19.5-19.5V382.3c0-10.8,8.7-19.5,19.5-19.5h96c10.8,0,19.5,8.7,19.5,19.5
		v122.9C229.1,516,220.4,524.7,209.6,524.7z M113.6,377.8c-2.4,0-4.5,2.1-4.5,4.5v122.9c0,2.4,2.1,4.5,4.5,4.5h96
		c2.4,0,4.5-2.1,4.5-4.5V382.3c0-2.4-2.1-4.5-4.5-4.5H113.6z"/>
</g>
<g>
	<path class="st103" d="M155.3,424.5L139.9,451c-2.8,4.9,0.7,11,6.3,11h30.6c5.6,0,9.2-6.1,6.3-11l-15.3-26.5
		C165.1,419.6,158.1,419.6,155.3,424.5z"/>
	<path class="st13" d="M176.9,469.5h-30.6c-5.4,0-10.2-2.8-12.8-7.4c-2.7-4.6-2.7-10.2,0-14.8l15.3-26.5c2.7-4.6,7.5-7.4,12.8-7.4
		s10.2,2.8,12.8,7.4l15.3,26.5c2.7,4.6,2.7,10.2,0,14.8C187.1,466.7,182.3,469.5,176.9,469.5z M146.6,454.5l30,0l-15-26L146.6,454.5
		z M155.3,424.5L155.3,424.5L155.3,424.5z"/>
</g>
</svg>
