<?xml version="1.0" standalone="no"?><!DOCTYPE svg PUBLIC "-//W3C//DTD SVG 1.1//EN" "http://www.w3.org/Graphics/SVG/1.1/DTD/svg11.dtd"><svg t="1547090496507" class="icon" style="" viewBox="0 0 1024 1024" version="1.1" xmlns="http://www.w3.org/2000/svg" p-id="3187" xmlns:xlink="http://www.w3.org/1999/xlink" width="200" height="200"><defs><style type="text/css"></style></defs><path d="M455.253333 124.629333a37.461333 37.461333 0 0 0-37.461333-37.461333H124.629333a37.461333 37.461333 0 0 0-37.461333 37.461333v293.162667c0 20.693333 16.768 37.461333 37.461333 37.461333h293.162667a37.461333 37.461333 0 0 0 37.461333-37.461333V124.629333z" p-id="3188"></path><path d="M901.290667 87.210667a37.802667 37.802667 0 0 1 35.498666 35.498666c2.517333 98.944 2.517333 198.058667 0 297.002667a37.802667 37.802667 0 0 1-35.498666 35.498667 5987.968 5987.968 0 0 1-297.002667 0 37.802667 37.802667 0 0 1-35.498667-35.498667 5841.152 5841.152 0 0 1 0-297.002667 37.802667 37.802667 0 0 1 35.498667-35.498666c98.944-2.517333 198.058667-2.517333 297.002667 0z m-288.085334 44.416v279.168h279.168V131.626667h-279.168zM419.712 568.789333a37.802667 37.802667 0 0 1 35.498667 35.498667c2.517333 98.944 2.517333 198.058667 0 297.002667a37.802667 37.802667 0 0 1-35.498667 35.498666c-98.944 2.517333-198.058667 2.517333-297.002667 0a37.802667 37.802667 0 0 1-35.498666-35.498666 5841.152 5841.152 0 0 1 0-297.002667 37.802667 37.802667 0 0 1 35.498666-35.498667c98.944-2.517333 198.058667-2.517333 297.002667 0z m-288.085333 44.416v279.168h279.168v-279.168H131.626667zM901.290667 568.789333a37.802667 37.802667 0 0 1 35.498666 35.498667c2.517333 98.944 2.517333 198.058667 0 297.002667a37.802667 37.802667 0 0 1-35.498666 35.498666c-98.944 2.517333-198.058667 2.517333-297.002667 0a37.802667 37.802667 0 0 1-35.498667-35.498666 5841.152 5841.152 0 0 1 0-297.002667 37.802667 37.802667 0 0 1 35.498667-35.498667c98.944-2.517333 198.058667-2.517333 297.002667 0z m-288.085334 44.416v279.168h279.168v-279.168h-279.168z" p-id="3189"></path></svg>