<?xml version="1.0" standalone="no"?><!DOCTYPE svg PUBLIC "-//W3C//DTD SVG 1.1//EN" "http://www.w3.org/Graphics/SVG/1.1/DTD/svg11.dtd"><svg t="1545987990122" class="icon" style="" viewBox="0 0 50 50" version="1.1" xmlns="http://www.w3.org/2000/svg" p-id="1108" xmlns:xlink="http://www.w3.org/1999/xlink" width="200" height="200"><defs><style type="text/css"></style></defs><path d="M538.566052 851.382571c3.840468 5.503341 8.665357 6.1777 11.910261 6.177699h79.667458c46.873564 0.057305 115.136274-8.711406 185.764867-58.781778 2.738367-1.941212 4.104481-3.081175 8.237615-6.28003 1.579985-1.224898 3.599991-6.755868 1.24434-9.68764-2.488681-3.098571-5.371334-3.13541-6.755867-3.111874-3.281743 0.059352-18.971074 1.112334-22.397103 1.112334-32.843012 0-56.218396-6.489808-71.240531-11.33414-25.983791-8.379854-48.914036-21.962198-60.796668-30.88645a82.753749 82.753749 0 0 0-49.774637-16.665565c-27.997658 0-49.818639 19.508309-55.979965 43.376926-1.394766 5.399987-4.835122 19.184945-8.000208 30.040177-4.976338 17.066701-6.948249 23.419386-13.257955 42.441625-0.186242 0.562818-2.933819 7.42204 1.378393 13.598716z" fill="#1afa29" p-id="1109"></path><path d="M76.839039 613.754498c0 141.792377 116.594485 242.862283 238.447741 243.806795h8.027837c15.32401 0.62831 24.38027 10.333346 28.154223 16.888646 3.302209 5.703909 4.879124 11.974729 4.828982 17.670451v43.602054s0.385786 9.360182 7.436366 16.410762c3.764744 3.765767 10.083659 8.248871 18.547425 7.826245 34.544771-1.723248 61.802578-15.941064 81.461313-36.309973 14.011108-14.519692 20.894889-28.845978 24.871457-37.822421 2.578732-6.260587 6.310729-13.866822 21.864984-57.595766 7.807826-21.945825 12.630668-41.061185 17.154705-57.417711 2.666736-9.644661 4.063549-18.541285 9.999748-29.954219 13.155624-25.287943 38.620599-43.729967 69.061912-46.307675 26.690896-2.26253 47.420009 7.820106 58.441017 16.264429 7.902994 6.053879 26.221198 17.776875 45.596478 26.220174 26.692942 11.633968 58.084906 18.176988 87.86107 18.176988 18.806321 0 44.23548-4.353145 68.511373-19.777438 17.349133-11.021008 32.993438-26.087145 45.213761-48.262191 31.997762-62.306045 34.842553-117.354801 34.842553-143.107325V513.835811c0-78.695317-63.802118-142.640698-142.495388-142.640697l-46.381353 0.013303c-8.31027 0-19.954471-4.013407-27.331486-14.813381-6.104021-8.934486-5.879917-17.774829-5.879917-19.287275v-50.395784c0-19.866467 15.567557-34.486442 34.011628-34.486442 17.820877 0 33.775244 14.442944 33.775244 34.130332 0 18.310018 15.332197 33.642215 33.463136 33.642214 20.399609 0 34.308387-16.176424 34.308387-33.910321 0-57.593719-46.796816-101.681844-101.637841-101.681843-25.241894 0-49.506531 9.423627-67.800176 25.909089-18.48705-16.432251-41.720194-25.90909-68.335364-25.909089-53.761438 0-101.137445 44.054355-101.137445 101.726869 0 17.999956 14.493086 33.865295 33.864272 33.865295 19.288299 0 33.909297-15.688307 33.909297-33.775244 0-19.065218 15.554254-33.997302 33.68724-33.997302 17.643845 0 34.085306 13.687744 34.085307 34.174334l0.012279 50.929949s0.522909 11.511171-7.610328 21.375844c-6.971785 8.456602-16.829294 12.489452-26.264177 12.489452H250.258741s-10.695596 0.221034-18.472724-2.133594c-9.394974-2.845815-15.924691-5.716188-24.397666-12.177343-14.22191-10.842952-25.747407-30.309306-25.747408-52.112892 0-19.829628 7.611352-36.94647 21.481244-49.923016 11.998265-11.228739 28.707832-18.813484 48.587602-17.971304 4.208858 0 13.274328 0.905626 23.140023 6.061043 9.68764 5.061272 16.393365 12.907984 17.70729 14.898315l0.030699-0.026606c18.241456 24.121374 45.234227 41.259706 76.259848 46.648436 0.180102 0.020466 0.36839 0.059352 0.535189 0.081865 4.492314 0.682545 10.081613 0.170892 15.193028-4.628414 5.03876-4.732791 5.248537-10.389628 5.248537-12.396331V234.790444c0-4.193509-1.11745-6.962575-2.049682-8.562003-0.934279-1.600451-3.287883-6.000668-9.668197-8.261151-13.859659-4.910846-23.829731-18.053168-23.829732-33.578769 0-15.487739 9.91379-28.677133 23.746844-33.549094 0 0 3.973498-0.961908 7.706519-5.184069 4.339842-4.907777 4.094248-10.576893 4.094248-11.71788v-52.679803c0-2.8847-1.022283-8.839319-5.960759-12.932543-4.932336-4.087085-9.442046-4.699022-14.157441-4.131088-0.212848 0.023536-0.429789 0.066515-0.652869 0.103354-31.547507 5.418406-58.769498 23.302729-76.368318 46.647413l-0.500397 0.629334c-4.601808 6.095835-12.238742 12.585643-22.547529 16.673751-5.131881 2.034333-13.041014 3.804652-19.039635 3.804652v0.023536c-95.302553 0.830925-173.758416 77.470419-173.758416 176.227654v305.45076z m703.32142 50.697659c-12.294001 13.910824-33.516348 15.260565-47.446615 2.971682-13.910824-12.254092-15.248286-33.513278-2.968611-47.435359 12.262278-13.913894 33.516348-15.246239 47.430242-2.968611 13.929244 12.270465 15.250332 33.511231 2.984984 47.432288z" fill="#1afa29" p-id="1110"></path></svg>