<?xml version="1.0" standalone="no"?><!DOCTYPE svg PUBLIC "-//W3C//DTD SVG 1.1//EN" "http://www.w3.org/Graphics/SVG/1.1/DTD/svg11.dtd"><svg t="1516267160237" class="icon" style="" viewBox="0 0 1024 1024" version="1.1" xmlns="http://www.w3.org/2000/svg" p-id="996" xmlns:xlink="http://www.w3.org/1999/xlink" width="200" height="200"><defs><style type="text/css"></style></defs><path d="M345.28 434.336c0-84.32 68.64-152.992 152.992-152.992s152.992 68.64 152.992 152.992c0 84.32-68.64 152.928-152.992 152.928S345.28 518.656 345.28 434.336z m-46.944-0.032a17.728 17.728 0 0 1-17.76 17.76H220.16a17.728 17.728 0 1 1 0-35.52h60.416c9.824 0 17.76 7.936 17.76 17.76z m478.112-17.76a17.728 17.728 0 1 1 0 35.52h-60.448a17.728 17.728 0 1 1 0-35.52h60.448zM300.832 527.808a17.76 17.76 0 1 1 17.792 30.784l-52.32 30.24a18.176 18.176 0 0 1-8.864 2.336 17.76 17.76 0 0 1-8.896-33.152l52.32-30.24z m386.016-184.576a17.728 17.728 0 0 1-8.896-33.152l52.352-30.24a17.76 17.76 0 1 1 17.76 30.784l-52.352 30.24a17.792 17.792 0 0 1-8.864 2.368z m-288.544 264.256a17.728 17.728 0 0 1 6.496 24.256l-30.24 52.352a17.696 17.696 0 0 1-24.256 6.528 17.76 17.76 0 0 1-6.496-24.288l30.24-52.352a17.792 17.792 0 0 1 24.288-6.496z m247.936-429.408a17.728 17.728 0 0 1 6.496 24.256l-30.208 52.32a17.696 17.696 0 0 1-24.256 6.528 17.76 17.76 0 0 1-6.496-24.288l30.208-52.32a17.76 17.76 0 0 1 24.288-6.496zM498.336 634.24c9.824 0 17.76 7.968 17.76 17.792l-0.032 60.416a17.76 17.76 0 0 1-17.76 17.728h-0.032a17.728 17.728 0 0 1-17.76-17.76l0.032-60.416c0-9.824 7.968-17.76 17.76-17.76h0.032z m-0.064-399.872a17.728 17.728 0 0 1-17.76-17.76V156.16a17.728 17.728 0 1 1 35.52 0v60.448a17.728 17.728 0 0 1-17.76 17.76z m124.288 379.584l30.208 52.352a17.824 17.824 0 0 1-15.36 26.656 17.664 17.664 0 0 1-15.392-8.896l-30.208-52.352a17.76 17.76 0 0 1 30.784-17.76zM374.048 254.656l-30.24-52.32a17.792 17.792 0 0 1 30.784-17.792l30.24 52.32a17.76 17.76 0 1 1-30.752 17.76z m374.016 303.392a17.728 17.728 0 0 1-8.896 33.152 17.792 17.792 0 0 1-8.864-2.368l-52.352-30.272a17.76 17.76 0 1 1 17.792-30.784l52.352 30.272zM318.624 310.08a17.728 17.728 0 0 1-8.896 33.152 17.792 17.792 0 0 1-8.864-2.368l-52.32-30.176a17.792 17.792 0 0 1 17.76-30.784l52.32 30.176z" fill="#FF9900" p-id="997"></path></svg>