<?xml version="1.0" standalone="no"?><!DOCTYPE svg PUBLIC "-//W3C//DTD SVG 1.1//EN" "http://www.w3.org/Graphics/SVG/1.1/DTD/svg11.dtd"><svg t="1519462796956" class="icon" style="" viewBox="0 0 1024 1024" version="1.1" xmlns="http://www.w3.org/2000/svg" p-id="2455" xmlns:xlink="http://www.w3.org/1999/xlink" width="200" height="200"><defs><style type="text/css"></style></defs><path d="M512 935c-109.5 0-213.4-41.7-292.5-117.4-78.8-75.5-125-176.9-130.1-285.7-5.5-119 35.3-230.5 115-313.9 38.6-40.5 84.4-72.2 135.9-94.4 53.5-23 110.8-34.6 170.4-34.6 7 0 14.1 0.2 21.2 0.5 108.8 5 210.2 51.2 285.7 130.1C893.3 298.6 935 402.5 935 512c0 47.5-7.8 94-23.2 138.5-14.9 42.9-36.5 83-64.3 119.2-7.2 9.3-8.2 22-2.5 32.3l72.8 133H512z" fill="#DCDFEF" p-id="2456"></path><path d="M510.7 114c6.6 0 13.3 0.2 20 0.5 51.7 2.4 101.6 14.6 148.3 36.2 45.3 21 85.8 50 120.5 86.2C870.8 311.2 910 409 910 512c0 44.7-7.3 88.5-21.8 130.3-14 40.4-34.3 78.1-60.5 112.2-13.2 17.2-15 40.6-4.6 59.6l52.6 96H512c-103.1 0-200.8-39.2-275.2-110.5-36.2-34.7-65.2-75.2-86.2-120.5-21.6-46.7-33.8-96.6-36.2-148.3-2.6-56.9 5.9-111.9 25.2-163.5 18.6-49.5 46.5-94 82.9-132.1 36.3-38 79.3-67.9 127.7-88.7 50.3-21.6 104.3-32.5 160.5-32.5m0-50C252.9 64 52.4 272.1 64.5 533.1c11 237.7 207.1 427 447.5 427h440.2c3.5 0 5.8-3.8 4.1-6.9L866.9 790c-0.9-1.6-0.7-3.6 0.4-5.1C925.4 709.4 960 614.7 960 512c0-240.4-189.3-436.5-427-447.5-7.4-0.3-14.9-0.5-22.3-0.5z" fill="#3A3644" p-id="2457"></path><path d="M615.8 910c134.5-64.5 239.1-180.5 286.9-321.7-3.6 18.3-8.4 36.3-14.5 54-14 40.4-34.3 78.1-60.5 112.1-13.2 17.2-15 40.6-4.6 59.6l52.6 96H615.8zM741 486v1c0 157-208 268-232.5 268-30.5 0-237.5-119-237-261.5 0-3.5-0.4-6.9-0.4-10.5 0-69 53-125 122-125 47.5 0 91.9 26.5 113 65.6 21.1-39.1 66.5-65.6 114-65.6 69 0 121 56 121 125-0.1 1-0.1 2-0.1 3z" fill="#BDC2E0" p-id="2458"></path><path d="M505.4 717c-3.3-0.3-17.2-4.5-43.9-19.7-26.1-14.9-53.6-34.4-77.5-55-29.9-25.8-53.7-52.5-70.7-79.5-19.9-31.5-29.9-62.5-29.8-92.3 0-2.2-0.1-4.4-0.2-6.2-0.1-1.5-0.2-3-0.2-4.3 0-61.7 47-110 107-110 20.5 0 40.8 5.6 58.8 16.1 17.7 10.3 31.9 24.7 41 41.6l13.2 24.4 13.2-24.4C534.9 373.2 575.4 350 617 350c29 0 55.8 11.4 75.5 32 19.6 20.5 30.5 48.3 30.5 78V463.9c0 76.6-54.1 139.8-99.5 179.4-54.1 47.4-108.3 72.3-118.1 73.7z" fill="#F95360" p-id="2459"></path><path d="M617 365c24.9 0 47.9 9.7 64.7 27.3 17 17.7 26.3 41.8 26.3 67.7v4.2c-0.1 69.5-49.6 128.2-91.2 165.2-27.8 24.7-54.7 42.3-72.4 52.7-19.4 11.4-33.3 17.4-39.4 19.5-5.6-1.7-19.3-7.3-40.9-20-25.3-14.9-51.5-34-74-53.7-27.8-24.5-49.8-49.7-65.4-75-17.5-28.4-26.4-56.1-26.3-82.3 0-2.7-0.2-5.2-0.3-7.2-0.1-1.3-0.2-2.5-0.2-3.3 0-53.3 40.4-95 92-95 17.8 0 35.6 4.9 51.2 14 15.3 9 27.5 21.4 35.4 35.8l26.4 48.7 26.4-48.7c7.8-14.4 20.1-26.7 35.7-35.7 16.1-9.3 34.1-14.2 52-14.2m0-30c-47.5 0-92.9 26.5-114 65.6-21.1-39.1-65.5-65.6-113-65.6-69 0-122 56-122 125 0 3.5 0.4 7 0.4 10.5C268 613 475 732 505.5 732 530 732 738 621 738 464v-1-3c0-69-51.9-125-121-125z" fill="#3A3644" p-id="2460"></path></svg>