<?xml version="1.0" standalone="no"?><!DOCTYPE svg PUBLIC "-//W3C//DTD SVG 1.1//EN" "http://www.w3.org/Graphics/SVG/1.1/DTD/svg11.dtd"><svg t="1519462720671" class="icon" style="" viewBox="0 0 1041 1024" version="1.1" xmlns="http://www.w3.org/2000/svg" p-id="1962" xmlns:xlink="http://www.w3.org/1999/xlink" width="203.3203125" height="200"><defs><style type="text/css"></style></defs><path d="M856.3712 258.730667c66.338133 42.0864 110.353067 116.1728 110.353067 200.533333 0 71.133867-31.317333 134.980267-80.930134 178.4832v179.643733c0 56.610133-30.737067 68.522667-68.676266 26.589867l-129.553067-143.240533a262.3488 262.3488 0 0 0 47.547733-23.7568l99.498667 109.994666V614.536533l17.425067-15.291733a185.514667 185.514667 0 0 0 63.488-139.997867c0-41.608533-13.653333-80.042667-36.744534-111.035733a359.8848 359.8848 0 0 0-22.408533-89.4976z" fill="#1aaba8" p-id="1963"></path><path d="M428.663467 640.256h89.975466c143.7696 0 260.352-116.599467 260.352-260.386133C778.990933 236.032 662.4256 119.466667 518.638933 119.466667H373.76C229.956267 119.466667 113.373867 236.066133 113.373867 379.869867c0 89.122133 45.038933 170.461867 118.289066 218.282666l23.210667 15.138134v219.0848l173.7728-192.119467z m22.7328 51.2L272.315733 889.4464c-37.888 41.898667-68.608 29.952-68.608-26.555733v-221.866667c-85.213867-55.6032-141.5168-151.790933-141.5168-261.154133C62.190933 207.7696 201.710933 68.266667 373.725867 68.266667h144.913066c172.066133 0 311.552 139.4688 311.552 311.6032 0 172.0832-139.52 311.586133-311.552 311.586133h-67.242666z" fill="#1aaba8" p-id="1964"></path></svg>