<?xml version="1.0" standalone="no"?><!DOCTYPE svg PUBLIC "-//W3C//DTD SVG 1.1//EN" "http://www.w3.org/Graphics/SVG/1.1/DTD/svg11.dtd"><svg t="1577668264578" class="icon" viewBox="0 0 1024 1024" version="1.1" xmlns="http://www.w3.org/2000/svg" p-id="1261" xmlns:xlink="http://www.w3.org/1999/xlink" width="200" height="200"><defs><style type="text/css"></style></defs><path d="M0 0m204.8 0l614.4 0q204.8 0 204.8 204.8l0 614.4q0 204.8-204.8 204.8l-614.4 0q-204.8 0-204.8-204.8l0-614.4q0-204.8 204.8-204.8Z" fill="#71A8FF" p-id="1262"></path><path d="M819.2 0H534.272A756.48 756.48 0 0 0 0 483.584V819.2a204.8 204.8 0 0 0 204.8 204.8h614.4a204.8 204.8 0 0 0 204.8-204.8V204.8a204.8 204.8 0 0 0-204.8-204.8z" fill="#73A2FF" p-id="1263"></path><path d="M819.2 0h-3.84a755.2 755.2 0 0 0-539.392 1024H819.2a204.8 204.8 0 0 0 204.8-204.8V204.8a204.8 204.8 0 0 0-204.8-204.8z" fill="#739BFF" p-id="1264"></path><path d="M497.152 721.152A752.384 752.384 0 0 0 560.384 1024H819.2a204.8 204.8 0 0 0 204.8-204.8V204.8a204.8 204.8 0 0 0-89.088-168.96 755.2 755.2 0 0 0-437.76 685.312z" fill="#7193FF" p-id="1265"></path><path d="M512 166.4a243.2 243.2 0 0 1 243.2 243.2v268.8h-486.4V409.6A243.2 243.2 0 0 1 512 166.4z" fill="#E9F6FF" p-id="1266"></path><path d="M473.6 169.728a242.944 242.944 0 0 0-204.8 239.872v268.8h409.6V409.6a242.944 242.944 0 0 0-204.8-239.872z" fill="#FFFFFF" p-id="1267"></path><path d="M512 755.2m-76.8 0a76.8 76.8 0 1 0 153.6 0 76.8 76.8 0 1 0-153.6 0Z" fill="#FFFFFF" p-id="1268"></path><path d="M217.6 665.6m51.2 0l486.4 0q51.2 0 51.2 51.2l0 0q0 51.2-51.2 51.2l-486.4 0q-51.2 0-51.2-51.2l0 0q0-51.2 51.2-51.2Z" fill="#E9F6FF" p-id="1269"></path></svg>