<svg t="1608281916041" class="icon" viewBox="0 0 1024 1024" version="1.1" xmlns="http://www.w3.org/2000/svg" p-id="3031" width="200" height="200"><path d="M246.353142 258.960573c0-105.88102 87.366772-190.722346 192.974771-190.722346 105.590935 0 192.957707 84.841326 192.957707 190.722346 0 105.863956-85.967539 184.664689-191.558474 184.664689-105.625062 0-194.374004-78.800733-194.374004-184.664689zM65.271855 891.072821v-1.586935c0-193.486686 149.308449-353.425896 338.239094-371.615931L443.730379 511.914681c43.632195-3.412765 105.044893-8.83906 137.449092-37.864623l14.77727-10.818463c61.890485-51.191468 98.151108-124.036927 98.151108-204.271022C694.107849 116.699483 577.681387 0 432.48532 0 297.954142 0 181.630062 116.699483 181.630062 258.960573c0 80.234094 36.294751 153.06249 98.168172 204.253958l18.155908 10.835527-18.12178 7.405699C112.368006 546.895517 0.019797 707.346642 0.019797 889.485886-0.611564 957.348709 53.293052 1023.198 120.968173 1023.829362h322.762206c10.8014 0 34.025262-17.063823 34.025262-34.127646 0-17.029695-23.223863-34.05939-34.025262-34.05939H122.708683c-31.551008 0.426596-57.010232-32.933178-57.436828-64.569505z m897.301117-89.158473c-54.467722 7.354508-94.789535 51.089085-94.789535 109.157273 0 10.835527 3.412765 25.629862 7.371571 33.052625l-47.113214 25.595734-18.12178-18.190035c-21.619863-14.845526-39.741643-21.585736-61.873421-21.585736-18.25829 0-39.758707 7.337444-61.890485 21.585736-7.388635 7.337444-14.760207 10.835527-18.207099 18.190035l-43.649258-25.595734c3.395701-7.422763 7.337444-21.653991 7.337443-33.052625a109.72038 109.72038 0 0 0-94.772471-109.157273c0-7.439827-3.463956-21.671055-3.463956-36.499517 0-10.818464 3.463956-25.612798 3.463956-36.414198 54.399467-7.439827 94.789535-51.259723 94.789535-109.259656 0-10.869655-3.395701-25.595734-7.337444-32.967306l47.096151-25.663989c3.412765 3.429828 10.716081 10.835527 18.155907 14.845525 21.500417 14.760207 39.758707 21.585736 57.931679 21.585736 18.104716 0 36.294751-7.371571 57.829295-21.585736 7.439827-7.371571 14.760207-10.835527 18.241226-14.845525l47.096151 25.663989c-3.412765 7.371571-7.456891 21.619863-7.456891 32.967306a109.839827 109.839827 0 0 0 94.874854 109.259656c0 7.371571 3.412765 21.619863 3.412765 36.414198 5.119147 10.8014 1.075021 25.595734 1.075021 36.499517z m18.207099-124.139311h-3.446893c-32.847859 0-57.829295-25.612798-57.829295-58.03406 0-7.405699 3.395701-18.25829 3.395701-21.619864 7.303316-18.207099 0-39.895217-14.794334-51.225596l-65.252058-36.414197h-18.207099c-10.699017 0-25.493351 3.395701-32.864923 14.760206-7.388635 7.422763-28.974371 25.629862-43.683386 25.629862-14.794334 0-36.38007-18.207099-47.181469-25.629862-7.32038-7.371571-18.155907-14.760207-32.916114-14.760206-7.303316 0-10.733144 0-14.760207 3.3957l-69.193801 36.414198c-14.794334 10.818464-21.619863 32.984369-14.794334 51.191468 0 0 3.395701 10.852591 3.3957 21.653991a57.112615 57.112615 0 0 1-57.846359 58.068189h-3.463956c-14.760207 0-28.957307 14.845526-32.916114 33.001433 0 3.412765-7.337444 29.008499-7.337443 54.672488 0 21.671055 3.378637 51.225596 7.337443 54.518913 3.446892 18.292418 18.12178 33.103816 32.916114 33.103816h3.48102c32.89905 0 57.829295 25.612798 57.829295 58.068189 0 7.337444-3.395701 18.155907-3.3957 21.51748-7.32038 18.292418 0 39.792835 14.794334 51.225596L649.247059 1023.829362c7.456891-3.412765 10.869655-3.412765 18.190035-3.412765 10.8014 0 25.561606-3.412765 33.001434-14.879653 7.32038-7.371571 28.906116-28.889052 47.09615-28.889052 14.760207 0 39.63926 18.155907 47.096151 28.889052 7.337444 7.439827 18.172971 14.86259 32.933178 14.862589 7.303316 0 10.750208 0 18.104716-3.3957l65.234994-36.448326c14.760207-10.8014 21.636927-32.967305 14.760206-51.293851 0 0-3.344509-10.716081-3.344509-21.551608 0-33.018497 25.561606-58.068189 57.914614-58.068188h3.395701c14.726079 0 28.940243-14.845526 32.864923-33.001433 0 0 7.354508-28.991435 7.354507-54.672488-6.774338-18.207099-10.135911-47.215597-10.135911-51.157341-3.48102-18.25829-18.241226-33.035561-32.933177-33.035561zM748.097784 812.664556c-25.561606 0-47.18147-21.653991-47.181469-47.249725 0-25.612798 21.619863-47.249725 47.181469-47.249725 25.493351 0 47.096151 21.636927 47.096151 47.266789 0.511915 25.595734-21.619863 47.232661-47.096151 47.232661z m18.12178-145.673854c-69.27912-14.845526-131.118414 47.215597-116.375271 120.061056 7.405699 39.809898 39.758707 72.794268 79.978137 80.165839 69.330312 14.896717 131.186669-47.147342 116.426462-116.5971-6.808465-43.239727-39.758707-76.275287-80.029328-83.629795z" fill="currentColor" p-id="3032"></path></svg>