<?xml version="1.0" encoding="utf-8"?>
<!-- Generator: Adobe Illustrator 22.0.0, SVG Export Plug-In . SVG Version: 6.00 Build 0)  -->
<svg version="1.1" id="图层_1" xmlns="http://www.w3.org/2000/svg" xmlns:xlink="http://www.w3.org/1999/xlink" x="0px" y="0px"
	 viewBox="0 0 100 100" style="enable-background:new 0 0 100 100;" xml:space="preserve">
<style type="text/css">
	.st3{fill:currentColor;}
</style>
<g>
	<g>
		<path class="st3" d="M79.3,96c-3.5,0-7-1.3-9.7-4l-19-19c-13.1,4.7-27.6,1.5-37.5-8.4c-11.3-11.3-13.8-29-5.9-43l2.2-3.9
			l24.8,24.8c1.2,1.2,3.1,1.2,4.2,0l3.4-3.4c0.6-0.6,0.9-1.3,0.9-2.1c0-0.8-0.3-1.6-0.9-2.1L17,10L21,7.8C35,0,52.7,2.4,64,13.7
			c9.9,9.9,13.1,24.4,8.4,37.5l19,19c5.3,5.3,5.3,14,0,19.3L89,92C86.3,94.7,82.8,96,79.3,96z M52.3,65l22.2,22.2
			c2.7,2.7,7,2.7,9.7,0l2.4-2.4c2.7-2.7,2.7-7,0-9.7L64.3,52.9l0.9-2.1c4.8-11,2.4-23.7-6.1-32.2C51.1,10.5,39,8,28.5,11.8L46.7,30
			c1.9,1.9,2.9,4.3,2.9,7s-1,5.1-2.9,7l-3.4,3.4c-3.8,3.8-10.1,3.8-13.9,0L11.2,29.1C7.4,39.6,9.9,51.7,18,59.8
			c8.5,8.5,21.1,10.9,32.2,6.1L52.3,65z"/>
	</g>
</g>
</svg>
