<?xml version="1.0" encoding="utf-8"?>
<!-- Generator: Adobe Illustrator 22.0.0, SVG Export Plug-In . SVG Version: 6.00 Build 0)  -->
<svg version="1.1" id="图层_1" xmlns="http://www.w3.org/2000/svg" xmlns:xlink="http://www.w3.org/1999/xlink" x="0px" y="0px"
	 viewBox="0 0 100 100" style="enable-background:new 0 0 100 100;" xml:space="preserve">
<style type="text/css">
	.st0{fill:none;stroke:#000000;stroke-width:2;stroke-miterlimit:10;}
	.st1{fill:none;stroke:#000000;stroke-width:2;stroke-linecap:square;stroke-linejoin:round;stroke-miterlimit:10;}
	.st2{fill:#313131;}
	.st3{fill:#FFFFFF;}
	.st4{fill:#FFFFFF;stroke:#000000;stroke-width:2;stroke-miterlimit:10;}
</style>
<g>
	<g>
		<g>
			<path class="st3" d="M60.4,91.4H40.8l-1.7-8.1c-4.3-1.5-8.4-3.8-11.8-6.9L19.3,79L9.5,62l6.2-5.6c-0.5-2.3-0.7-4.6-0.7-6.8
				c0-2.2,0.2-4.5,0.7-6.8l-6.2-5.6l9.8-17l7.9,2.6c3.5-3,7.5-5.4,11.8-6.9l1.7-8.1h19.6l1.7,8.1c4.3,1.5,8.4,3.8,11.8,6.9l7.9-2.6
				l9.8,17l-6.2,5.6c0.5,2.3,0.7,4.6,0.7,6.8c0,2.2-0.2,4.5-0.7,6.8l6.2,5.6l-9.8,17L74,76.4c-3.5,3-7.5,5.4-11.8,6.9L60.4,91.4z
				 M45.1,86.1h11.1l1.5-7l1.5-0.4c4.6-1.3,8.9-3.8,12.4-7.2l1.1-1.1l6.8,2.2l5.5-9.6l-5.3-4.8l0.4-1.5c0.6-2.4,0.9-4.8,0.9-7.2
				c0-2.3-0.3-4.7-0.9-7.2l-0.4-1.5l5.3-4.8l-5.5-9.6l-6.8,2.2l-1.1-1.1c-3.5-3.3-7.8-5.8-12.4-7.2L57.6,20l-1.5-7H45.1l-1.5,7
				l-1.5,0.4c-4.6,1.3-8.9,3.8-12.4,7.2l-1.1,1.1l-6.8-2.2l-5.5,9.6l5.3,4.8l-0.4,1.5c-0.6,2.4-0.9,4.8-0.9,7.2
				c0,2.3,0.3,4.7,0.9,7.2l0.4,1.5l-5.3,4.8l5.5,9.6l6.8-2.2l1.1,1.1c3.5,3.3,7.8,5.8,12.4,7.2l1.5,0.4L45.1,86.1z"/>
		</g>
	</g>
	<g>
		<g>
			<path class="st3" d="M50.6,65.9c-9,0-16.3-7.3-16.3-16.3c0-9,7.3-16.3,16.3-16.3c9,0,16.3,7.3,16.3,16.3
				C66.9,58.6,59.6,65.9,50.6,65.9z M50.6,38.5c-6.1,0-11.1,5-11.1,11.1s5,11.1,11.1,11.1c6.1,0,11.1-5,11.1-11.1
				S56.7,38.5,50.6,38.5z"/>
		</g>
	</g>
</g>
</svg>
