<?xml version="1.0" encoding="utf-8"?>
<!-- Generator: Adobe Illustrator 22.0.0, SVG Export Plug-In . SVG Version: 6.00 Build 0)  -->
<svg version="1.1" id="图层_1" xmlns="http://www.w3.org/2000/svg" xmlns:xlink="http://www.w3.org/1999/xlink" x="0px" y="0px"
	 viewBox="0 0 100 100" style="enable-background:new 0 0 100 100;" xml:space="preserve">
<style type="text/css">
	.st0{fill:none;stroke:#000000;stroke-width:2;stroke-miterlimit:10;}
	.st1{fill:none;stroke:#000000;stroke-width:2;stroke-linecap:square;stroke-linejoin:round;stroke-miterlimit:10;}
	.st2{fill:#313131;}
	.st3{fill:#313131;stroke:#000000;stroke-width:2;stroke-miterlimit:10;}
	.st4{fill:#313131;}
	.st5{fill:none;stroke:#000000;stroke-width:2;stroke-linecap:round;stroke-miterlimit:10;}
</style>
<g>
	<g>
		<g>
			<path class="st4" d="M86.1,90.9H13.7c-4.2,0-7.7-3.4-7.7-7.7V38.1c0-4.2,3.4-7.7,7.7-7.7h72.4c4.2,0,7.7,3.4,7.7,7.7v45.2
				C93.8,87.5,90.3,90.9,86.1,90.9z M13.7,35.5c-1.4,0-2.6,1.1-2.6,2.6v45.2c0,1.4,1.1,2.6,2.6,2.6h72.4c1.4,0,2.6-1.1,2.6-2.6V38.1
				c0-1.4-1.1-2.6-2.6-2.6H13.7z"/>
		</g>
	</g>
	<g>
		<g>
			<path class="st4" d="M77.1,34.8L53.9,11.7c-2.2-2.2-5.8-2.2-8.1,0L22.8,34.8l-3.6-3.6L42.3,8c4.2-4.2,11.1-4.2,15.3,0l23.1,23.1
				L77.1,34.8z"/>
		</g>
	</g>
	<g>
		<g>
			<rect x="25.9" y="56" class="st4" width="10.7" height="10.7"/>
		</g>
	</g>
	<g>
		<g>
			<rect x="46.3" y="56" class="st4" width="10.7" height="10.7"/>
		</g>
	</g>
	<g>
		<g>
			<rect x="66.7" y="56" class="st4" width="10.7" height="10.7"/>
		</g>
	</g>
</g>
</svg>
