<?xml version="1.0" encoding="utf-8"?>
<!-- Generator: Adobe Illustrator 22.0.0, SVG Export Plug-In . SVG Version: 6.00 Build 0)  -->
<svg version="1.1" id="图层_1" xmlns="http://www.w3.org/2000/svg" xmlns:xlink="http://www.w3.org/1999/xlink" x="0px" y="0px"
	 viewBox="0 0 100 100" style="enable-background:new 0 0 100 100;" xml:space="preserve">
<style type="text/css">
	.st0{fill:none;stroke:#000000;stroke-width:2;stroke-miterlimit:10;}
	.st1{fill:none;stroke:#000000;stroke-width:2;stroke-linecap:square;stroke-linejoin:round;stroke-miterlimit:10;}
	.st2{fill:#313131;}
	.st3{fill:#313131;}
	.st4{fill:#313131;stroke:#000000;stroke-width:2;stroke-miterlimit:10;}
</style>
<g>
	<g>
		<path class="st3" d="M82.3,73.3H12.7c-4.1,0-7.4-3.3-7.4-7.4V22.5c0-4.1,3.3-7.4,7.4-7.4h69.6c4.1,0,7.4,3.3,7.4,7.4v43.4
			C89.7,70,86.4,73.3,82.3,73.3z M12.7,20c-1.4,0-2.5,1.1-2.5,2.5v43.4c0,1.4,1.1,2.5,2.5,2.5h69.6c1.4,0,2.5-1.1,2.5-2.5V22.5
			c0-1.4-1.1-2.5-2.5-2.5H12.7z"/>
	</g>
</g>
<g>
	<g>
		<rect y="77.4" class="st3" width="100" height="4.9"/>
	</g>
</g>
<g>
	<g>
		
			<rect x="2.7" y="84.6" transform="matrix(0.7071 -0.7071 0.7071 0.7071 -57.7832 34.6159)" class="st3" width="20.4" height="4.9"/>
	</g>
</g>
<g>
	<g>
		
			<rect x="78.8" y="77" transform="matrix(0.7071 -0.7071 0.7071 0.7071 -37.5193 82.8803)" class="st3" width="4.9" height="19.4"/>
	</g>
</g>
<g>
	<g>
		<rect x="45.1" y="9" class="st3" width="4.9" height="10.7"/>
	</g>
</g>
<g>
	<g>
		<polygon class="st3" points="23.1,53.4 20.8,49 42.3,38 51.1,45.2 65.2,34.8 68.1,38.8 51,51.4 41.7,43.8 		"/>
	</g>
</g>
<g>
	<g>
		<polygon class="st3" points="69.1,48.2 64.2,48.2 64.2,37.8 53.8,37.8 53.8,32.9 69.1,32.9 		"/>
	</g>
</g>
</svg>
