<?xml version="1.0" encoding="utf-8"?>
<!-- Generator: Adobe Illustrator 22.0.0, SVG Export Plug-In . SVG Version: 6.00 Build 0)  -->
<svg version="1.1" xmlns="http://www.w3.org/2000/svg" xmlns:xlink="http://www.w3.org/1999/xlink" x="0px" y="0px"
	 viewBox="0 0 1366 768" enable-background="new 0 0 1366 768" xml:space="preserve">
<g id="图层_1">
	<g>
		<g>
			<g>
				<path fill="#c20d19" d="M677.23,788.64C474.84,788.64,311,677.808,311,403.132c0-53.004,48.188-96.375,101.195-96.375h539.707
					c57.828,0,101.196,43.371,101.196,96.375C1057.918,697.082,865.164,788.64,677.23,788.64L677.23,788.64z M686.867,422.41
					c-38.551,0-72.281,28.914-72.281,72.281c0,24.094,14.457,48.187,33.73,57.828v77.102h77.102v-77.102
					c19.277-14.457,33.734-33.734,33.734-57.828C759.152,456.14,725.418,422.41,686.867,422.41L686.867,422.41z M686.867,422.41"/>
			</g>
		</g>
	</g>
</g>
<g id="图层_2">
	<path fill="#c20d19" d="M527.848,244.842v-81.173c0-54.043,43.81-97.853,97.853-97.853h122.338
		c54.043,0,97.853,43.81,97.853,97.853v81.173c0,11.461,9.291,20.752,20.752,20.752h50.051c11.461,0,20.752-9.291,20.752-20.752
		V142.917c0-91.558-77.097-163.839-173.476-163.839h-159.02c-96.379,0-173.48,72.281-173.48,163.839v101.925
		c0,11.461,9.291,20.752,20.752,20.752h54.876C518.557,265.594,527.848,256.303,527.848,244.842z"/>
</g>
</svg>
