<?xml version="1.0" standalone="no"?><!DOCTYPE svg PUBLIC "-//W3C//DTD SVG 1.1//EN" "http://www.w3.org/Graphics/SVG/1.1/DTD/svg11.dtd"><svg t="1576231504953" class="icon" viewBox="0 0 1024 1024" version="1.1" xmlns="http://www.w3.org/2000/svg" p-id="2631" xmlns:xlink="http://www.w3.org/1999/xlink" width="200" height="200"><defs><style type="text/css"></style></defs><path d="M508.342857 102.4C281.6 102.4 98.742857 285.257143 98.742857 512c0 226.742857 182.857143 409.6 409.6 409.6s409.6-182.857143 409.6-409.6c0-226.742857-182.857143-409.6-409.6-409.6z m0 629.028571c-34.742857 0-62.171429-27.428571-62.171428-62.171428h124.342857c0 34.742857-27.428571 62.171429-62.171429 62.171428z m166.4-84.114285H341.942857c-10.971429 0-20.114286-9.142857-20.114286-20.114286 0-10.971429 9.142857-20.114286 21.942858-20.114286 20.114286 0 20.114286-82.285714 20.114285-82.285714v-56.685714c0-73.142857 47.542857-133.485714 104.228572-153.6v-7.314286c0-23.771429 18.285714-42.057143 42.057143-42.057143 23.771429 0 42.057143 18.285714 42.057142 42.057143v7.314286c60.342857 20.114286 104.228571 82.285714 104.228572 153.6v58.514285s0 82.285714 20.114286 82.285715c10.971429 0 20.114286 9.142857 20.114285 20.114285-1.828571 9.142857-10.971429 18.285714-21.942857 18.285715z" fill="#F0BA57" p-id="2632"></path></svg>